<?xml version="1.0" encoding="utf-8"?>
<!DOCTYPE svg PUBLIC "-//W3C//DTD SVG 20010904//EN" "http://www.w3.org/TR/2001/REC-SVG-20010904/DTD/svg10.dtd">
<svg version="1.0" xmlns="http://www.w3.org/2000/svg" width="497px" height="515px" viewBox="0 0 497 515" preserveAspectRatio="xMidYMid meet">
 <g fill="#ffffff">
  <path d="M262 488.6 l0 -25.6 6 0 6 0 0.2 16.3 0.3 16.4 36 -16.4 36 -16.3 14.1 0.2 14.1 0.3 -54.6 24.7 c-30 13.6 -55.4 25 -56.3 25.4 -1.7 0.6 -1.8 -1 -1.8 -25z"/>
  <path d="M181 487.7 l-53.5 -24.2 14 -0.3 14.1 -0.3 33.9 15.4 34 15.3 0.3 -15.3 0.3 -15.3 5.9 0 6 0 0 24.5 c0 13.5 -0.3 24.5 -0.7 24.4 -0.5 0 -24.9 -10.9 -54.3 -24.2z"/>
  <path d="M47.3 427.3 l-41.3 -18.6 0 -26.1 c0 -14.4 -0.5 -80.9 -1.1 -147.9 -0.6 -67 -0.8 -122.1 -0.5 -122.4 0.5 -0.5 80.7 29.9 83.6 31.7 0.7 0.4 1 3 0.8 6.7 l-0.3 6.1 -36 -13.9 c-19.7 -7.6 -36 -13.7 -36.2 -13.6 -0.2 0.2 1.3 194.7 2 252 l0.2 19.8 34.5 15.6 c19 8.5 34.9 15.8 35.3 16.2 0.4 0.5 0.7 3.6 0.5 6.9 l-0.3 6.1 -41.2 -18.6z"/>
  <path d="M414 438.7 l0 -6.3 32.1 -14.4 c17.7 -8 32.3 -14.9 32.5 -15.5 0.4 -1.2 2.5 -270.7 2.2 -271.1 -0.2 -0.1 -15.2 5.5 -33.3 12.5 l-33 12.8 -0.3 -6 c-0.2 -3.3 0.1 -6.3 0.5 -6.7 1.6 -1.4 77.4 -30.2 78 -29.6 0.6 0.6 -1.6 295.8 -2.2 296.4 -0.7 0.7 -74.9 34.2 -75.7 34.2 -0.4 0 -0.8 -2.8 -0.8 -6.3z"/>
  <path d="M147.3 347.5 c-68.9 -85.1 -77.2 -95.7 -76.4 -97.7 0.5 -1.3 34.7 -43.5 76 -93.8 69.8 -85 75.1 -91.8 75.1 -95.2 l0 -3.8 76 0 c74.7 0 76 0 78 2 1.9 1.9 2 3.3 2 24 l0 22.1 -5.7 -0.3 -5.8 -0.3 -0.3 -17.7 -0.2 -17.8 -69 0 -69 0 0 9.8 c0 5.3 -0.3 10.7 -0.6 11.8 -0.5 1.9 -0.1 2.2 4.4 2.6 12.2 1.2 22.5 10.8 25.3 23.7 2.4 11.1 -3.1 24.6 -12.6 30.9 -4.6 3 -14.4 5.9 -16.9 4.9 -1.6 -0.6 -2.6 7.9 -2.6 21.6 l0 8.7 28 0 28.1 0 -0.3 5.8 -0.3 5.7 -27.6 0.3 -27.7 0.2 -0.6 2.3 c-0.3 1.2 -0.6 3.9 -0.6 6 l0 3.7 17 0 17.1 0 -0.3 5.8 -0.3 5.7 -16.7 0.3 -16.8 0.2 0 6 0 6 8.5 0 8.6 0 -0.3 5.8 -0.3 5.7 -8.8 0.3 -8.7 0.3 0 11.7 c0 15.1 -3.1 115.6 -3.5 116.1 -0.2 0.2 -14.9 -11.6 -32.7 -26.1 -84.4 -69.1 -95.1 -77.8 -91.8 -74.5 1.9 1.9 31.2 28.1 65 58.2 42.2 37.6 61.6 54.3 61.8 53.1 0.3 -1.4 3.3 -1.6 30.1 -1.6 34.6 0 33.5 -0.3 34.5 8.7 2.8 24.2 21.1 40.8 43 39 14.4 -1.2 26.4 -9.8 33 -23.7 l3.1 -6.5 0.3 -86.2 0.2 -86.3 6 0 6 0 0 83.3 c0 79.2 -0.1 83.8 -1.9 90.9 -2.7 10.6 -6.1 16.7 -13.8 24.8 -7.2 7.7 -16.2 12.9 -26.1 14.9 -3.5 0.7 -23.7 1.1 -58.4 1.1 -46.7 0 -52.9 0.2 -52.4 1.5 0.3 0.8 0.2 1.5 -0.2 1.5 -0.4 -0.1 -35.5 -43 -77.9 -95.5z m142.2 75.8 c-5.7 -6 -11.3 -16.6 -12.9 -24.6 l-1.3 -6.2 -25.6 -0.3 -25.7 -0.2 0 5.8 c0 3.2 0.3 11.4 0.7 18 l0.6 12.2 34.4 0 34.4 0 -4.6 -4.7z m-73.3 -19.1 l-0.4 -15.2 -41.2 -36.7 c-22.6 -20.1 -42.2 -37.6 -43.5 -38.7 -1.4 -1.2 4.3 6.2 12.5 16.4 34.9 43.4 72.8 90 72.9 89.7 0.1 -0.1 -0.1 -7.1 -0.3 -15.5z m-44.2 -168.9 c23.3 -28.5 42.9 -52.5 43.6 -53.3 0.9 -1.1 1.6 -14.6 2.7 -51.5 0.8 -27.5 1.4 -50.1 1.3 -50.2 -0.3 -0.4 -137.1 167.1 -137.1 167.8 0 0.8 45.5 38.7 46.6 38.8 0.4 0.1 19.7 -23.2 42.9 -51.6z m63.5 -96.2 c7.2 -3.3 10.5 -8.6 10.5 -16.8 0 -8.9 -8 -17.3 -16.3 -17.3 -2.7 0 -2.7 0.1 -2.7 6.8 0 3.7 -0.3 11.8 -0.7 18 l-0.6 11.2 2.9 0 c1.6 0 4.7 -0.9 6.9 -1.9z"/>
  <path d="M252 350 l0 -6 43 0 43 0 0 6 0 6 -43 0 -43 0 0 -6z"/>
  <path d="M222 322.9 l0 -9.1 6.5 -7.1 6.5 -7.1 0 -17.9 0 -17.8 11.3 -11.8 c106.2 -111.2 129.3 -135.1 130.8 -135.1 3.4 0 5 1.3 9.5 7.6 14.2 19.9 14.8 45.6 1.5 66 -2.1 3.3 -27.8 31 -57.1 61.7 l-53.3 55.7 -17.1 0 -17.2 0 -5.8 5.9 -5.9 6 4.4 0.3 4.4 0.3 0.3 5.8 0.3 5.7 -9.6 0 -9.5 0 0 -9.1z m102.2 -80.5 c28.2 -29.5 52.5 -55.4 54 -57.6 5.6 -8.2 7.3 -14.3 7.2 -26.3 0 -11.5 -2 -19.4 -6.2 -24.6 -1.8 -2.1 -2.5 -1.4 -67.5 66.7 l-65.7 68.8 0 8.9 c0 4.9 0.4 8.7 0.9 8.5 0.4 -0.1 26.4 -27.1 57.7 -59.8 31.2 -32.7 57.1 -59.6 57.4 -59.8 0.3 -0.1 2.3 1.6 4.5 3.8 l3.9 4 -5.5 5.8 c-3.1 3.1 -25.3 26.4 -49.4 51.7 -24.1 25.3 -47.7 49.9 -52.4 54.8 l-8.6 8.7 9.2 0 9.2 0 51.3 -53.6z"/>
  <path d="M44.8 111.7 c-23.5 -9.5 -42.8 -17.4 -42.8 -17.7 0 -0.3 19 -7.6 42.3 -16.4 23.2 -8.7 42.8 -16.1 43.5 -16.3 0.9 -0.4 1.2 1.2 1.2 5.9 l0 6.4 -26.2 9.9 c-14.5 5.4 -26.7 10.1 -27.1 10.5 -0.5 0.4 11.3 5.6 26.2 11.6 l27.1 10.8 0 6.3 c0 3.5 -0.3 6.3 -0.7 6.3 -0.5 -0.1 -20 -7.8 -43.5 -17.3z"/>
  <path d="M414 119.8 l0 -6.3 24.5 -9.5 c13.4 -5.2 24.1 -9.7 23.7 -10.1 -0.4 -0.3 -11.4 -4.6 -24.4 -9.5 l-23.8 -8.9 0 -6.3 c0 -6.1 0.1 -6.3 2.3 -5.6 5.5 1.7 78.3 29.6 78.9 30.2 0.6 0.6 -75 30.8 -79.9 32 -1 0.3 -1.3 -1.2 -1.3 -6z"/>
  <path d="M165.5 32.1 c9.3 -3.8 83.3 -31.4 84.2 -31.4 0.6 0 20.1 7.1 43.1 15.9 l42 15.9 -16.3 0.3 -16.2 0.2 -26.3 -9.9 -26.3 -10 -26.3 9.9 -26.4 10 -16.7 -0.1 c-9.8 0 -16 -0.4 -14.8 -0.8z"/>
 </g>
</svg>